<svg class="icon" viewBox="0 0 1024 1024" version="1.1" xmlns="http://www.w3.org/2000/svg" p-id="17053" height="128" width="128"><path d="M136.3 319.4c44.8 26.3 86.9 51.1 129.1 75.9 67.8 40 135.7 80 203.6 119.6 8.9 5.3 14.5 10.5 14.5 22.7-0.6 137.1-0.4 274.2-0.4 411.3 0 3.5-0.6 7.1-0.9 12.5-6.9-3.5-12.2-6-17.1-9.1-105-61.7-209.8-123.5-314.7-185.3-8.4-4.9-15.4-9-15.4-21.9 0.7-137.8 0.4-275.5 0.4-413.2-0.1-3 0.5-6 0.9-12.5z" fill="#0D527F" opacity=".65" p-id="17054"></path><path d="M886.6 320.3c0.5 8.2 0.9 14.1 0.9 20.1 0.1 133.9 0 268.1 0.2 402 0.1 9.9-1.3 16.9-11 22.6C767.9 828.5 659.5 892.7 551 956.6c-2.5 1.5-5.3 2.5-9.8 4.8-0.6-6.7-1.3-11.9-1.3-17.1-0.1-133.9 0.2-268-0.3-401.9-0.1-13.5 3.3-21.1 15.1-27.8 104.7-60.9 208.9-122.8 313.2-184.2 5.5-3.3 11.3-6.1 18.7-10.1z" fill="#0D527F" opacity=".4" p-id="17055"></path><path d="M166.1 267.9c7.4-4.6 12.8-8.3 18.4-11.5 103.7-61.2 207.7-122.3 311.4-183.6 9.2-5.6 16.7-8.9 27.9-2.3C631 134.4 738.6 197.5 846 260.9c3.1 1.8 5.9 4 10.3 7.1-4 3.2-6.8 6.2-10.1 8.1C738.7 339.6 631.3 403 523.6 465.8c-5.9 3.5-16.8 4.1-22.5 0.9-109.8-64-219.3-128.7-328.9-193.4-1.3-0.8-2.5-2.2-6.1-5.4z" fill="#0D527F" opacity=".9" p-id="17056"></path></svg>
